<svg aria-hidden="true" style="position: absolute; width: 0; height: 0; overflow: hidden;" version="1.1" xmlns="http://www.w3.org/2000/svg" xmlns:xlink="http://www.w3.org/1999/xlink">
<defs>
<symbol id="icon-equals" viewBox="0 0 24 24">
<path d="M18 7h-12c-1.104 0-2 0.896-2 2s0.896 2 2 2h12c1.104 0 2-0.896 2-2s-0.896-2-2-2z"></path>
<path d="M18 14h-12c-1.104 0-2 0.896-2 2s0.896 2 2 2h12c1.104 0 2-0.896 2-2s-0.896-2-2-2z"></path>
</symbol>
<symbol id="icon-arrow-sync" viewBox="0 0 24 24">
<path d="M19.5 12.473c0-1.948-0.618-3.397-2.066-4.844-0.391-0.39-1.023-0.39-1.414 0-0.391 0.391-0.391 1.024 0 1.415 1.079 1.078 1.48 2.007 1.48 3.429 0 1.469-0.572 2.85-1.611 3.888-1.004 1.003-2.078 1.502-3.428 1.593l1.246-1.247c0.391-0.391 0.391-1.023 0-1.414s-1.023-0.391-1.414 0l-3.707 3.707 3.707 3.707c0.195 0.195 0.451 0.293 0.707 0.293s0.512-0.098 0.707-0.293c0.391-0.391 0.391-1.023 0-1.414l-1.337-1.336c1.923-0.082 3.542-0.792 4.933-2.181 1.417-1.416 2.197-3.299 2.197-5.303z"></path>
<path d="M6.5 12.5c0-1.469 0.572-2.85 1.611-3.889 1.009-1.009 2.092-1.508 3.457-1.594l-1.275 1.275c-0.391 0.391-0.391 1.023 0 1.414 0.195 0.196 0.451 0.294 0.707 0.294s0.512-0.098 0.707-0.293l3.707-3.707-3.707-3.707c-0.391-0.391-1.023-0.391-1.414 0s-0.391 1.023 0 1.414l1.311 1.311c-1.914 0.086-3.525 0.796-4.907 2.179-1.417 1.416-2.197 3.299-2.197 5.303 0 1.948 0.618 3.397 2.066 4.844 0.195 0.195 0.451 0.292 0.707 0.292s0.512-0.098 0.707-0.293c0.391-0.391 0.391-1.024 0-1.415-1.079-1.077-1.48-2.006-1.48-3.428z"></path>
</symbol>
<symbol id="icon-media-stop" viewBox="0 0 24 24">
<path d="M16 6h-8c-1.1 0-2 0.9-2 2v8c0 1.1 0.9 2 2 2h8c1.1 0 2-0.9 2-2v-8c0-1.1-0.9-2-2-2z"></path>
</symbol>
<symbol id="icon-media-play" viewBox="0 0 24 24">
<path d="M10.396 18.433c2.641-2.574 6.604-6.433 6.604-6.433s-3.963-3.859-6.604-6.433c-0.363-0.349-0.853-0.567-1.396-0.567-1.104 0-2 0.896-2 2v10c0 1.104 0.896 2 2 2 0.543 0 1.033-0.218 1.396-0.567z"></path>
</symbol>
<symbol id="icon-heart" viewBox="0 0 32 32">
<path d="M29.193 5.265c-3.629-3.596-9.432-3.671-13.191-0.288-3.76-3.383-9.561-3.308-13.192 0.288-3.741 3.704-3.741 9.709 0 13.415 1.069 1.059 11.053 10.941 11.053 10.941 1.183 1.172 3.096 1.172 4.278 0 0 0 10.932-10.822 11.053-10.941 3.742-3.706 3.742-9.711-0.001-13.415zM27.768 17.268l-11.053 10.941c-0.393 0.391-1.034 0.391-1.425 0l-11.053-10.941c-2.95-2.92-2.95-7.671 0-10.591 2.844-2.815 7.416-2.914 10.409-0.222l1.356 1.22 1.355-1.22c2.994-2.692 7.566-2.594 10.41 0.222 2.95 2.919 2.95 7.67 0.001 10.591zM9.253 7.501c0.277 0 0.5 0.224 0.5 0.5s-0.224 0.5-0.5 0.5h-0.001c-1.794 0-3.249 1.455-3.249 3.249v0.001c0 0.276-0.224 0.5-0.5 0.5s-0.5-0.224-0.5-0.5v0c0-2.346 1.901-4.247 4.246-4.249 0.002 0 0.002-0.001 0.004-0.001z"></path>
</symbol>
<symbol id="icon-cheveron-right" viewBox="0 0 20 20">
<path d="M12.95 10.707l0.707-0.707-5.657-5.657-1.414 1.414 4.242 4.243-4.242 4.243 1.414 1.414 4.95-4.95z"></path>
</symbol>
<symbol id="icon-menu" viewBox="0 0 20 20">
<path d="M0 3h20v2h-20v-2zM0 9h20v2h-20v-2zM0 15h20v2h-20v-2z"></path>
</symbol>
</defs>
</svg>
